<?xml version="1.0" standalone="no"?>
<!DOCTYPE svg PUBLIC "-//W3C//DTD SVG 20010904//EN"
 "http://www.w3.org/TR/2001/REC-SVG-20010904/DTD/svg10.dtd">
<svg version="1.0" xmlns="http://www.w3.org/2000/svg"
 width="1500.000000pt" height="902.000000pt" viewBox="0 0 1500.000000 902.000000"
 preserveAspectRatio="xMidYMid meet">

<g transform="translate(0.000000,902.000000) scale(0.100000,-0.100000)"
fill="#000000" stroke="none">
<path d="M4860 9013 c-564 -58 -1344 -688 -2296 -1858 -709 -871 -1540 -2080
-2316 -3370 -274 -456 -272 -452 -77 -200 303 392 741 936 1128 1400 1458
1748 2506 2776 3060 3003 107 44 235 56 292 27 53 -27 77 -54 99 -112 84 -225
33 -671 -223 -1944 l-54 -266 136 -6 c75 -4 209 -10 297 -13 l161 -7 11 34
c26 79 136 501 187 714 398 1657 318 2514 -240 2595 -69 10 -97 10 -165 3z"/>
<path d="M7316 7492 c-5 -8 -46 -220 -46 -239 0 -10 33 -13 134 -13 l133 0 25
125 c14 69 23 127 20 130 -8 8 -260 6 -266 -3z"/>
<path d="M7965 7488 c-8 -27 -285 -1414 -285 -1430 0 -16 13 -18 129 -18 73 0
132 4 136 10 10 16 292 1439 287 1445 -3 3 -63 5 -134 5 -94 0 -130 -3 -133
-12z"/>
<path d="M8615 7478 c-11 -46 -45 -221 -45 -229 0 -5 61 -9 135 -9 131 0 135
1 140 23 11 45 45 220 45 228 0 5 -61 9 -135 9 -131 0 -135 -1 -140 -22z"/>
<path d="M9405 7357 l-150 -94 -15 -81 -14 -82 -68 0 c-37 0 -68 -2 -68 -4 0
-2 -9 -47 -20 -101 -11 -53 -17 -101 -14 -106 3 -5 32 -9 65 -9 53 0 60 -2 55
-17 -13 -44 -107 -538 -112 -590 -11 -105 26 -181 110 -226 36 -19 56 -22 168
-22 69 0 130 3 133 7 7 7 44 169 45 196 0 8 -20 12 -70 12 -57 0 -74 4 -90 20
-11 11 -20 27 -20 36 0 9 25 144 56 300 l57 284 83 0 c78 0 84 1 89 23 14 60
35 170 35 183 0 11 -17 14 -80 14 -44 0 -80 4 -80 8 0 5 15 83 34 175 18 92
30 167 27 167 -4 0 -74 -42 -156 -93z"/>
<path d="M6125 7099 c-214 -75 -343 -283 -362 -579 -13 -218 54 -376 191 -448
45 -24 62 -27 146 -27 83 0 102 3 155 28 32 15 74 39 93 53 18 14 35 24 38 21
7 -7 -36 -198 -51 -227 -33 -63 -104 -100 -193 -100 -83 0 -132 34 -146 100
-5 24 -11 26 -147 46 -160 23 -156 25 -145 -59 26 -207 146 -287 431 -287 285
0 401 75 476 310 27 84 239 1106 239 1152 0 16 -11 18 -124 18 l-124 0 -11
-50 c-6 -27 -14 -68 -17 -90 -4 -22 -9 -40 -13 -40 -4 0 -15 16 -25 35 -27 49
-98 113 -154 138 -69 30 -181 33 -257 6z m215 -189 c43 -12 103 -71 124 -122
50 -118 6 -344 -88 -455 -33 -39 -119 -83 -163 -83 -74 0 -140 51 -168 129
-45 129 17 383 118 479 32 31 93 61 127 62 8 0 31 -5 50 -10z"/>
<path d="M7235 7088 c-8 -22 -205 -1011 -205 -1030 0 -16 12 -18 129 -18 73 0
132 4 136 10 10 16 212 1039 207 1045 -3 3 -63 5 -134 5 -94 0 -130 -3 -133
-12z"/>
<path d="M8535 7078 c-10 -40 -205 -1022 -205 -1030 0 -4 61 -8 135 -8 131 0
135 1 140 23 10 39 205 1021 205 1029 0 4 -61 8 -135 8 -131 0 -135 -1 -140
-22z"/>
<path d="M9936 7091 c-3 -4 33 -233 79 -507 47 -274 85 -512 85 -527 0 -58
-71 -161 -134 -194 -28 -15 -110 -20 -145 -8 -16 5 -19 -5 -30 -97 -6 -56 -8
-105 -4 -108 17 -15 106 -30 181 -30 142 0 222 48 306 183 55 90 696 1275 696
1288 0 5 -59 9 -139 9 l-139 0 -70 -132 c-160 -304 -251 -488 -282 -571 -18
-48 -35 -85 -37 -83 -2 2 -10 59 -18 127 -17 157 -74 595 -81 632 l-6 27 -128
0 c-71 0 -131 -4 -134 -9z"/>
<path d="M3595 5499 c-414 -8 -871 -33 -1350 -73 l-150 -12 285 -7 c765 -20
1302 -53 1825 -113 1114 -127 1816 -339 2110 -638 125 -127 168 -256 146 -441
-23 -198 -91 -338 -230 -475 -229 -225 -599 -348 -1141 -380 -102 -7 -229 -8
-283 -5 -84 6 -98 5 -95 -7 4 -19 1771 -3258 1775 -3254 1 1 -60 198 -136 437
-77 239 -274 858 -440 1376 -166 517 -301 948 -301 956 0 9 3 18 8 21 4 2 84
27 177 56 448 135 697 260 900 451 173 165 268 328 327 564 30 122 33 393 4
500 -76 291 -285 515 -637 684 -564 271 -1456 386 -2794 360z"/>
<path d="M4296 4818 c-257 -1121 -752 -2939 -1240 -4548 -36 -118 -64 -215
-62 -217 1 -2 22 41 45 95 698 1584 1267 3039 1711 4372 122 365 137 416 122
422 -20 9 -479 88 -508 88 -17 0 -25 -25 -68 -212z"/>
<path d="M8855 4588 c-7 -21 -285 -1422 -285 -1436 0 -10 28 -12 122 -10 l122
3 14 70 c19 103 19 102 55 49 69 -103 171 -150 308 -142 206 12 380 184 450
444 32 117 32 324 0 413 -52 148 -147 226 -291 238 -89 7 -166 -11 -242 -57
-34 -21 -64 -34 -66 -30 -3 7 65 364 85 448 5 22 5 22 -131 22 -100 0 -138 -3
-141 -12z m456 -602 c22 -15 47 -45 63 -77 76 -153 -15 -478 -153 -548 -110
-56 -211 -18 -265 99 -25 56 -26 184 -2 279 33 128 120 246 200 271 46 14 115
3 157 -24z"/>
<path d="M12335 4588 c-4 -14 -45 -231 -45 -241 0 -4 61 -7 135 -7 74 0 135 2
135 4 0 2 11 58 25 126 14 68 25 124 25 126 0 2 -61 4 -135 4 -100 0 -137 -3
-140 -12z"/>
<path d="M11609 4459 c-79 -50 -147 -96 -150 -101 -4 -6 -12 -43 -19 -84 l-13
-74 -64 0 c-56 0 -64 -2 -73 -22 -8 -21 -40 -169 -40 -189 0 -5 29 -9 65 -9
36 0 65 -1 65 -3 0 -2 -24 -125 -54 -274 -30 -149 -58 -297 -61 -330 -12 -105
24 -181 109 -226 36 -19 57 -22 168 -22 69 0 130 3 134 7 8 8 43 162 44 191 0
14 -10 17 -66 17 -76 0 -99 10 -108 45 -4 15 17 142 50 310 l57 285 83 0 c78
0 84 1 89 23 14 60 35 170 35 183 0 11 -17 14 -80 14 -44 0 -80 2 -80 3 0 5
59 297 65 325 3 12 2 22 -3 22 -5 0 -74 -41 -153 -91z"/>
<path d="M7743 4206 c-193 -44 -354 -207 -408 -411 -23 -86 -30 -241 -16 -317
36 -182 159 -308 339 -347 116 -25 281 -7 375 40 195 98 327 330 327 574 0
218 -106 382 -288 446 -75 27 -243 34 -329 15z m238 -222 c40 -20 86 -81 98
-130 32 -126 -20 -324 -113 -431 -128 -146 -341 -92 -376 97 -19 101 20 274
83 367 35 50 118 108 166 116 39 7 112 -3 142 -19z"/>
<path d="M10350 4204 c-205 -44 -369 -219 -416 -444 -23 -108 -15 -285 15
-362 34 -87 81 -148 150 -195 79 -55 143 -74 266 -80 178 -9 295 35 415 156
267 270 246 741 -39 885 -106 54 -256 70 -391 40z m195 -205 c100 -27 150
-105 148 -230 -1 -144 -49 -273 -131 -357 -113 -115 -274 -92 -348 48 -27 52
-25 193 3 285 44 138 117 226 210 251 61 16 69 16 118 3z"/>
<path d="M13220 4213 c-168 -28 -333 -152 -405 -305 -72 -152 -96 -352 -60
-493 45 -174 179 -282 364 -293 163 -9 295 41 398 151 57 62 140 205 125 218
-4 4 -52 14 -107 23 -55 9 -111 19 -125 21 -22 5 -28 -1 -47 -43 -13 -27 -43
-67 -67 -90 -99 -91 -217 -77 -267 32 -52 116 8 394 109 500 115 120 277 94
313 -51 6 -24 16 -43 21 -43 19 0 204 21 226 26 22 4 23 8 17 47 -17 109 -100
219 -201 266 -75 36 -199 50 -294 34z"/>
<path d="M14423 4205 c-132 -29 -253 -123 -287 -222 -24 -69 -21 -158 8 -218
40 -87 92 -120 324 -205 148 -55 182 -78 182 -126 0 -67 -111 -122 -222 -110
-89 9 -143 46 -182 124 -15 29 -20 32 -49 27 -18 -2 -72 -12 -122 -20 -49 -8
-93 -15 -97 -15 -33 0 41 -136 107 -199 90 -85 201 -121 375 -121 165 0 278
39 365 127 83 83 123 209 96 305 -32 115 -115 174 -357 253 -177 59 -207 85
-178 154 17 41 65 61 145 61 104 0 163 -28 209 -98 l15 -22 123 22 c73 13 122
26 122 33 0 28 -64 136 -98 166 -100 88 -300 123 -479 84z"/>
<path d="M12256 4182 c-9 -26 -206 -1014 -206 -1029 0 -10 32 -13 134 -13
l135 0 10 53 c87 421 198 994 194 1000 -2 4 -62 7 -133 7 -115 0 -129 -2 -134
-18z"/>
</g>
</svg>
