<?xml version="1.0" standalone="no"?>
<!DOCTYPE svg PUBLIC "-//W3C//DTD SVG 20010904//EN"
 "http://www.w3.org/TR/2001/REC-SVG-20010904/DTD/svg10.dtd">
<svg version="1.0" xmlns="http://www.w3.org/2000/svg"
 width="1536.000000pt" height="1152.000000pt" viewBox="0 0 1536.000000 1152.000000"
 preserveAspectRatio="xMidYMid meet">

<g transform="translate(0.000000,1152.000000) scale(0.100000,-0.100000)"
fill="#000000" stroke="none">
<path d="M6685 7181 c-479 -64 -921 -404 -1113 -856 -95 -224 -128 -443 -103
-690 67 -671 562 -1180 1243 -1281 312 -46 712 53 983 245 68 48 175 141 175
152 0 5 -43 64 -96 132 -53 67 -126 161 -163 209 -36 48 -70 87 -76 87 -5 1
-37 -23 -70 -52 -79 -70 -140 -111 -217 -145 -94 -43 -115 -50 -207 -67 -387
-71 -772 126 -936 480 -72 156 -80 190 -80 370 0 187 11 241 80 380 98 199
244 334 455 422 124 51 162 58 335 58 157 0 162 -1 255 -34 140 -50 201 -86
312 -183 36 -32 68 -58 70 -58 5 0 90 105 186 230 41 52 92 118 114 147 22 29
38 57 36 62 -5 16 -149 132 -218 177 -136 88 -280 149 -444 190 -85 21 -130
26 -281 29 -99 2 -207 0 -240 -4z"/>
<path d="M9550 7184 c-205 -26 -449 -119 -635 -242 -92 -61 -300 -268 -357
-357 -207 -317 -289 -651 -244 -991 15 -118 50 -258 83 -339 218 -536 680
-870 1258 -911 370 -26 816 150 1087 430 415 427 521 1059 268 1603 -139 299
-424 578 -708 692 -42 18 -85 36 -94 41 -9 5 -72 24 -140 41 -112 28 -140 31
-303 34 -99 2 -196 1 -215 -1z m348 -570 c441 -91 738 -501 686 -949 -58 -497
-524 -841 -1015 -749 -416 77 -709 432 -709 859 0 237 90 446 262 612 166 158
367 241 591 242 62 1 141 -6 185 -15z"/>
<path d="M960 7142 c0 -4 17 -28 38 -53 20 -25 64 -81 97 -124 33 -42 96 -123
140 -179 44 -55 145 -185 225 -287 80 -102 201 -257 270 -345 69 -87 143 -182
165 -211 22 -28 119 -151 215 -273 96 -123 228 -291 293 -374 65 -83 146 -186
180 -230 34 -43 82 -105 107 -136 137 -176 264 -337 339 -433 l86 -107 283 2
283 3 -1 1365 c0 751 0 1371 0 1378 0 9 -62 12 -275 12 l-275 0 0 -950 c0
-522 -4 -950 -8 -950 -4 0 -26 23 -47 52 -22 29 -99 127 -170 218 -72 91 -139
177 -150 192 -18 24 -108 138 -395 503 -48 61 -232 296 -409 523 l-323 412
-334 0 c-184 0 -334 -3 -334 -8z"/>
<path d="M4330 5770 l0 -1380 275 0 275 0 0 1380 0 1380 -275 0 -275 0 0
-1380z"/>
<path d="M11780 5780 c0 -753 -1 -1373 -2 -1377 -2 -5 122 -9 275 -11 l277 -2
0 945 c0 523 4 945 9 945 4 0 32 -32 61 -71 29 -40 130 -169 223 -288 93 -119
188 -240 210 -270 23 -29 60 -76 83 -105 54 -68 254 -323 324 -412 174 -222
277 -354 308 -393 20 -24 51 -65 71 -90 20 -26 73 -95 119 -154 l84 -107 284
0 284 0 -2 1378 -3 1377 -275 0 -275 0 0 -948 c0 -521 -3 -947 -7 -947 -4 0
-28 28 -54 63 -77 101 -143 186 -223 287 -82 104 -151 192 -251 320 -36 46
-126 161 -200 256 -295 377 -422 539 -519 665 -20 25 -82 105 -139 178 l-104
131 -279 0 -279 0 0 -1370z"/>
</g>
</svg>
